<svg width="32" height="32" viewBox="0 0 32 32" fill="none" xmlns="http://www.w3.org/2000/svg">
<path d="M5.37491 15.5005L6.23808 14.6453L11.6479 9.28548L5.37491 15.5005ZM5.37491 15.5005H6.58998M5.37491 15.5005H6.58998M6.58998 15.5005H27C27.1326 15.5005 27.2598 15.5532 27.3535 15.6469C27.4473 15.7407 27.5 15.8679 27.5 16.0005C27.5 16.1331 27.4473 16.2603 27.3535 16.354C27.2598 16.4478 27.1326 16.5005 27 16.5005H6.58998H5.38288L6.23643 17.354L11.5964 22.714L11.5979 22.7155C11.6447 22.762 11.6819 22.8173 11.7073 22.8782C11.7327 22.9391 11.7458 23.0045 11.7458 23.0705C11.7458 23.1365 11.7327 23.2018 11.7073 23.2628C11.6819 23.3237 11.6447 23.379 11.5979 23.4255L11.5979 23.4255C11.5512 23.4718 11.4957 23.5085 11.4348 23.5334C11.3739 23.5583 11.3087 23.5709 11.2429 23.5705L11.2421 23.5705C11.1112 23.5699 10.9858 23.5181 10.8927 23.4261C10.8925 23.4259 10.8923 23.4257 10.8921 23.4255L5.23376 17.7671C5.2337 17.7671 5.23364 17.767 5.23358 17.767C4.76552 17.2982 4.50262 16.6629 4.50262 16.0005C4.50262 15.3384 4.76527 14.7033 5.23291 14.2347C5.23319 14.2344 5.23348 14.2341 5.23376 14.2338L10.942 8.57559L10.9425 8.57508C11.0362 8.48196 11.1629 8.42969 11.295 8.42969C11.4271 8.42969 11.5538 8.48196 11.6475 8.57508L11.6479 8.57548M6.58998 15.5005L11.6479 8.57548M11.6479 8.57548C11.6947 8.62196 11.7319 8.67726 11.7573 8.73819C11.7827 8.79912 11.7958 8.86447 11.7958 8.93048C11.7958 8.99649 11.7827 9.06184 11.7573 9.12277C11.732 9.18362 11.6948 9.23885 11.6481 9.28529L11.6479 8.57548Z" fill="#7F3DFF" stroke="#212325"/>
</svg>
